<?xml version="1.0" standalone="no"?><!DOCTYPE svg PUBLIC "-//W3C//DTD SVG 1.1//EN"
  "http://www.w3.org/Graphics/SVG/1.1/DTD/svg11.dtd">
<svg t="1543332240316" class="icon" style="" viewBox="0 0 1024 1024" version="1.1" xmlns="http://www.w3.org/2000/svg"
     p-id="9036" xmlns:xlink="http://www.w3.org/1999/xlink" width="48" height="48">
  <defs>
    <style type="text/css">
      path {
      fill:#a5a5a5;
      }
    </style>
  </defs>
  <path
    d="M403.25018 892.728234 620.762099 892.728234 620.762099 783.973298 403.25018 783.973298 403.25018 892.728234 403.25018 892.728234 403.25018 892.728234zM892.729258 131.270742l-761.452375 0c-29.852912 0-54.380538 24.526603-54.380538 54.376445l0 489.48931c0 29.92966 24.526603 54.375421 54.380538 54.375421l761.452375 0c29.853935 0 54.380538-24.445762 54.380538-54.375421L947.109796 185.647187C947.109796 155.798369 922.583193 131.270742 892.729258 131.270742L892.729258 131.270742 892.729258 131.270742zM566.380538 675.136497 457.625602 675.136497l0-54.380538 108.754936 0L566.380538 675.136497 566.380538 675.136497 566.380538 675.136497zM892.729258 566.381561l-761.452375 0L131.276882 185.647187l761.452375 0L892.729258 566.381561 892.729258 566.381561 892.729258 566.381561zM892.729258 566.381561"
    p-id="9037"></path>
</svg>
